HIERARCHY
ROOT Hips
{
  OFFSET 32.5426 90.3016 127.184
  CHANNELS 6 Xposition Yposition Zposition Zrotation Xrotation Yrotation
  JOINT ToSpine
  {
    OFFSET -2.69724 7.43032 -0.144315
    CHANNELS 3 Zrotation Xrotation Yrotation
    JOINT Spine
    {
      OFFSET -0.0310711 10.7595 1.96963
      CHANNELS 3 Zrotation Xrotation Yrotation
      JOINT Spine1
      {
        OFFSET 13.1342 3.43533 0.764692
        CHANNELS 3 Zrotation Xrotation Yrotation
        JOINT Neck
        {
          OFFSET 29.8703 7.82586 -0.130764
          CHANNELS 3 Zrotation Xrotation Yrotation
          JOINT Head
          {
            OFFSET 9.52751 0.295786 -0.907742
            CHANNELS 3 Zrotation Xrotation Yrotation
            End Site
            {
              OFFSET 16.4037 0.713936 2.7358
            }
          }
        }
        JOINT LeftShoulder
        {
          OFFSET 27.5574 4.95586 2.47156
          CHANNELS 3 Zrotation Xrotation Yrotation
          JOINT LeftArm
          {
            OFFSET 1.20734 -0.998971 20.1238
            CHANNELS 3 Zrotation Xrotation Yrotation
            JOINT LeftForeArm
            {
              OFFSET 26.8049 -0.0536703 -0.155908
              CHANNELS 3 Zrotation Xrotation Yrotation
              JOINT LeftHand
              {
                OFFSET 26.6817 0 0.320147
                CHANNELS 3 Zrotation Xrotation Yrotation
                End Site
                {
                  OFFSET 18.6119 0 0.382219
                }
              }
            }
          }
        }
        JOINT RightShoulder
        {
          OFFSET 27.5927 4.71444 -2.65209
          CHANNELS 3 Zrotation Xrotation Yrotation
          JOINT RightArm
          {
            OFFSET 2.83739 -1.17114 -18.7564
            CHANNELS 3 Zrotation Xrotation Yrotation
            JOINT RightForeArm
            {
              OFFSET 28.839 -0.0548439 1.22491
              CHANNELS 3 Zrotation Xrotation Yrotation
              JOINT RightHand
              {
                OFFSET 26.5114 0 -0.101894
                CHANNELS 3 Zrotation Xrotation Yrotation
                End Site
                {
                  OFFSET 18.2168 0 0
                }
              }
            }
          }
        }
      }
    }
  }
  JOINT LeftUpLeg
  {
    OFFSET -4.76168 -1.9167 -10.2353
    CHANNELS 3 Zrotation Xrotation Yrotation
    JOINT LeftLeg
    {
      OFFSET 2.55951 -42.0585 -8.02213
      CHANNELS 3 Zrotation Xrotation Yrotation
      JOINT LeftFoot
      {
        OFFSET 3.16357 -42.5282 -3.95426
        CHANNELS 3 Zrotation Xrotation Yrotation
        JOINT LeftToeBase
        {
          OFFSET 0.346054 -6.02161 12.8035
          CHANNELS 3 Zrotation Xrotation Yrotation
          End Site
          {
            OFFSET 0.134235 -1.35082 5.13018
          }
        }
      }
    }
  }
  JOINT RightUpLeg
  {
    OFFSET -4.94151 -1.41743 10.6446
    CHANNELS 3 Zrotation Xrotation Yrotation
    JOINT RightLeg
    {
      OFFSET -2.56294 -42.0364 -7.94377
      CHANNELS 3 Zrotation Xrotation Yrotation
      JOINT RightFoot
      {
        OFFSET -3.0952 -42.555 -4.02241
        CHANNELS 3 Zrotation Xrotation Yrotation
        JOINT RightToeBase
        {
          OFFSET -0.0828122 -6.13587 12.8035
          CHANNELS 3 Zrotation Xrotation Yrotation
          End Site
          {
            OFFSET -0.131328 -1.35082 5.13018
          }
        }
      }
    }
  }
}
MOTION
Frames:	10
Frame Time:	0.0333333
32.5502 90.5725 128.83 75.5475 0.353899 1.68663 -70.1915 0 88.8779 81.1254 68.2856 2.46955 2.82237 17.0506 3.96071 -117.076 31.7004 160.282 -178.362 75.1876 -146.072 -0.704143 -18.9918 -30.1585 -54.5571 26.6045 -141.501 32.5302 -4.82766 -96.7936 0.420957 0.000575406 0.35866 -2.90118 7.28892 53.575 -119.95 -3.63876 112.628 18.5781 -15.4256 51.6001 0.58676 0.000330995 0.0646652 -58.0311 18.1793 99.7679 -2.85492 44.29 -5.15954 -1.60348 -21.1272 -1.89517 2.69488 -8.03473 8.87258 -34.6994 -13.8877 70.0263 2.57204 45.0604 3.09974 -20.2484 3.99061 3.16283 2.44047 -21.2201 -7.49588 
32.3879 90.7055 128.825 75.3653 0.95315 1.7031 -70.1915 0 88.8779 81.9525 67.9699 2.24212 2.52955 17.0215 2.921 -117.025 30.995 158.444 -173.793 75.321 -150.124 -0.533995 -18.7579 -28.6198 -54.5269 26.4028 -142.628 30.5232 -4.27638 -96.4876 0.420957 0.000575406 0.35866 -2.8786 7.16779 53.9091 -120.295 -3.75903 113.508 18.0806 -14.7924 51.9338 0.58676 0.000330995 0.0646652 -58.0085 17.6452 99.1519 -2.8197 43.396 -5.67501 -1.25411 -20.0554 -1.77093 3.43559 -9.39948 9.25409 -34.8944 -13.965 70.1372 2.58961 44.411 3.74427 -20.247 4.47702 3.20952 2.3923 -21.4341 -9.62365 
32.2721 90.7081 128.735 75.471 1.0033 1.44022 -70.1915 0 88.8779 82.703 68.0149 1.78485 2.3096 17.2383 2.27801 -118.007 30.8796 157.797 -171.494 75.3826 -153.38 -0.358336 -18.2561 -27.5267 -54.3152 26.7367 -143.83 32.2055 -3.85429 -95.3818 0.420957 0.000575406 0.35866 -2.88094 7.35641 52.9824 -121.256 -5.04197 113.569 18.0226 -14.7612 51.9032 0.58676 0.000330995 0.0646652 -58.4511 17.3304 99.5434 -2.66271 42.744 -4.89268 -1.67934 -20.2988 -1.81669 3.46335 -9.0974 7.37731 -34.9973 -14.1784 70.4485 2.51185 44.3356 3.24112 -20.5513 3.99023 3.21285 2.49924 -21.6401 -6.42381 
32.0723 90.7475 128.549 75.5135 1.01948 1.30317 -70.1915 0 88.8779 82.8395 68.1875 2.12059 2.33887 17.5839 1.74051 -118.988 31.3972 157.796 -172.96 75.7092 -152.851 -0.349035 -18.3266 -27.2378 -54.657 27.0154 -143.783 31.8396 -3.58909 -95.05 0.420957 0.000575406 0.35866 -2.8413 7.40781 52.2334 -122.028 -5.88747 113.459 17.0685 -13.7503 52.2259 0.58676 0.000330995 0.0646652 -58.571 17.0735 99.6377 -2.53079 42.47 -4.00623 -2.86759 -21.4483 -2.00757 2.77494 -7.28283 4.86642 -35.1046 -14.5299 70.2233 2.49204 43.9221 3.50901 -20.2412 4.09812 3.172 2.53577 -21.8669 -5.80827 
31.9387 90.8114 128.393 75.6733 1.31662 1.38682 -70.1915 0 88.8779 82.575 68.3016 1.92965 2.43731 17.4336 2.54738 -120.571 32.0569 158.496 -172.708 75.9533 -153.919 -0.33593 -18.1545 -27.4659 -54.7581 27.3425 -143.631 31.8594 -3.71249 -95.2399 0.420957 0.000575406 0.35866 -2.71 7.27488 51.2173 -122.471 -6.88857 113.654 16.894 -13.4558 52.5122 0.58676 0.000330995 0.0646652 -58.6007 17.1743 99.5943 -2.77088 42.5294 -5.97705 -2.8881 -20.9574 -1.95393 3.19913 -8.54904 7.02071 -35.5839 -15.159 69.2137 2.55451 43.6198 4.31904 -20.5515 4.44812 3.25826 2.54064 -21.9449 -5.84273 
31.7754 90.802 128.218 75.9643 1.09946 1.40767 -70.1915 0 88.8779 82.6362 68.7371 1.73253 2.61632 17.743 2.95963 -121.137 32.4119 158.339 -171.094 76.2932 -154.707 -0.386069 -18.3664 -27.6355 -54.878 27.7235 -143.494 31.5471 -3.5984 -95.1299 0.420957 0.000575406 0.35866 -2.62662 7.2229 50.3938 -123.145 -7.51223 113.275 17.4548 -13.4949 53.3824 0.58676 0.000330995 0.0646652 -58.8405 17.319 99.7749 -2.87089 42.6584 -6.70313 -3.13696 -20.3715 -1.90184 3.85013 -9.77358 7.27395 -35.8692 -15.0968 69.1601 2.55115 43.3505 4.56195 -20.4734 4.75998 3.27571 2.54255 -21.9352 -5.7638 
31.6235 90.7527 128.007 76.2339 0.857767 1.07099 -70.1915 0 88.8779 81.9572 69.234 1.86555 2.92201 18.1234 3.40296 -121.584 32.5996 157.825 -169.464 76.5776 -155.091 -0.501842 -18.7979 -28.1242 -54.8903 27.8272 -142.916 31.7324 -3.6568 -95.1808 0.420957 0.000575406 0.35866 -2.55142 7.18461 49.5968 -123.685 -8.00297 112.729 18.2469 -13.6046 54.4487 0.58676 0.000330995 0.0646652 -59.0834 16.9083 99.9927 -2.84612 42.7998 -6.35078 -3.01907 -19.5846 -1.80708 4.54212 -10.9112 6.60736 -35.7617 -15.3136 69.6061 2.55867 43.5513 4.40839 -20.7727 4.86733 3.33802 2.55429 -21.983 -5.52842 
31.4448 90.6617 127.764 76.3982 0.769654 0.874636 -70.1915 0 88.8779 81.1523 69.5459 2.19997 3.32377 18.3181 3.90214 -123.007 33.1629 158.542 -170.32 76.7323 -153.768 -0.585606 -19.0112 -28.6703 -55.067 27.5731 -142.443 31.3946 -3.59915 -95.1655 0.420957 0.000575406 0.35866 -2.58825 7.46662 48.7679 -123.966 -8.27846 111.993 18.8645 -13.7019 55.217 0.58676 0.000330995 0.0646652 -58.9941 16.5685 100.033 -2.7074 43.1551 -4.87499 -3.02294 -19.9977 -1.85367 4.46274 -10.3494 4.07073 -35.4373 -15.3089 70.4365 2.57522 43.9106 4.15722 -20.5889 4.87493 3.30698 2.49868 -21.5246 -6.165 
31.3338 90.6495 127.593 76.6508 0.491317 0.912889 -70.1915 0 88.8779 80.6457 69.8514 2.46642 3.59707 18.4966 4.44979 -123.91 33.8074 159.352 -173.647 76.9401 -150.436 -0.736802 -19.4653 -29.4305 -55.4107 27.3496 -141.331 31.0587 -3.5648 -95.1866 0.420957 0.000575406 0.35866 -2.50454 7.29803 48.4571 -123.807 -8.61236 111.843 18.0066 -12.8626 55.5487 0.58676 0.000330995 0.0646652 -59.2752 16.4899 100.073 -2.82851 43.2022 -5.86711 -2.87879 -18.2218 -1.65007 6.30022 -14.0369 6.21829 -35.5897 -15.001 70.7349 2.54404 43.701 4.09461 -20.7186 5.20226 3.36229 2.46603 -21.3746 -6.92701 
31.2994 90.6991 127.503 76.8076 0.29001 0.830509 -70.1915 0 88.8779 79.6975 69.9663 3.40582 4.04427 18.6727 4.22744 -124.509 34.0988 159.878 -173.851 77.0177 -150.237 -0.794405 -19.6239 -29.7321 -55.5223 27.2144 -140.899 31.1898 -3.51892 -95.0826 0.420957 0.000575406 0.35866 -2.49291 7.28258 48.3763 -123.64 -8.92203 111.654 17.9482 -12.7727 55.6439 0.58676 0.000330995 0.0646652 -59.3653 16.4015 99.9244 -2.78298 43.4538 -5.20265 -3.41779 -20.4284 -1.9235 4.05598 -9.80058 5.32294 -35.7026 -14.6876 71.3012 2.41216 43.3954 3.30695 -20.127 4.85291 3.22503 2.38473 -20.1609 -6.96743 
